<svg width="100%" height="100%" viewBox="0 0 114 140" fill="none" xmlns="http://www.w3.org/2000/svg">
<g filter="url(#filter0_d)">
<circle cx="68" cy="58" r="30" fill="black"/>
</g>
<path fill-rule="evenodd" clip-rule="evenodd" d="M57.375 58C57.375 57.6548 57.6548 57.375 58 57.375H78C78.3452 57.375 78.625 57.6548 78.625 58C78.625 58.3452 78.3452 58.625 78 58.625H58C57.6548 58.625 57.375 58.3452 57.375 58Z" fill="white" stroke="white" stroke-width="1.5" stroke-linecap="round"/>
<path fill-rule="evenodd" clip-rule="evenodd" d="M68 47.375C68.3452 47.375 68.625 47.6548 68.625 48V68C68.625 68.3452 68.3452 68.625 68 68.625C67.6548 68.625 67.375 68.3452 67.375 68V48C67.375 47.6548 67.6548 47.375 68 47.375Z" fill="white" stroke="white" stroke-width="1.5" stroke-linecap="round"/>
<defs>
<filter id="filter0_d" x="0" y="0" width="140" height="140" filterUnits="userSpaceOnUse" color-interpolation-filters="sRGB">
<feFlood flood-opacity="0" result="BackgroundImageFix"/>
<feColorMatrix in="SourceAlpha" type="matrix" values="0 0 0 0 0 0 0 0 0 0 0 0 0 0 0 0 0 0 127 0"/>
<feOffset dx="2" dy="12"/>
<feGaussianBlur stdDeviation="20"/>
<feColorMatrix type="matrix" values="0 0 0 0 0 0 0 0 0 0 0 0 0 0 0 0 0 0 0.4 0"/>
<feBlend mode="normal" in2="BackgroundImageFix" result="effect1_dropShadow"/>
<feBlend mode="normal" in="SourceGraphic" in2="effect1_dropShadow" result="shape"/>
</filter>
</defs>
</svg>
